<svg width="40" height="40" viewBox="0 0 40 40" fill="none" xmlns="http://www.w3.org/2000/svg">
<rect width="26" height="32" transform="matrix(-1 0 0 1 33 4)" fill="#92AAF6"/>
<path d="M12.984 8.22V9.636H12.692V8.5H12.184V8.22H12.984ZM12.984 9.512C13.0773 9.65867 13.2107 9.768 13.384 9.84C13.5573 9.912 13.7613 9.95333 13.996 9.964C14.108 9.96667 14.244 9.96933 14.404 9.972C14.564 9.972 14.732 9.972 14.908 9.972C15.084 9.96933 15.2547 9.96533 15.42 9.96C15.5853 9.95467 15.728 9.948 15.848 9.94C15.8373 9.96133 15.8253 9.98933 15.812 10.024C15.7987 10.0587 15.7867 10.0947 15.776 10.132C15.7653 10.1693 15.7573 10.204 15.752 10.236C15.64 10.2387 15.5067 10.2413 15.352 10.244C15.2 10.2493 15.0413 10.252 14.876 10.252C14.7107 10.2547 14.5507 10.2547 14.396 10.252C14.2413 10.2493 14.1093 10.2467 14 10.244C13.736 10.2333 13.5107 10.1907 13.324 10.116C13.1373 10.0413 12.9813 9.92533 12.856 9.768C12.768 9.85333 12.6773 9.93867 12.584 10.024C12.4933 10.112 12.3987 10.2 12.3 10.288L12.144 9.992C12.232 9.928 12.3267 9.85467 12.428 9.772C12.532 9.68667 12.6293 9.6 12.72 9.512H12.984ZM12.224 6.908L12.452 6.74C12.5347 6.80133 12.6173 6.87067 12.7 6.948C12.7853 7.02533 12.8627 7.10267 12.932 7.18C13.004 7.25733 13.06 7.32933 13.1 7.396L12.856 7.584C12.8187 7.51733 12.7653 7.444 12.696 7.364C12.6267 7.28133 12.5507 7.20133 12.468 7.124C12.388 7.044 12.3067 6.972 12.224 6.908ZM13.212 7H15.724V7.252H13.212V7ZM13.152 9.108H15.784V9.364H13.152V9.108ZM14.296 6.64H14.588V9.82H14.296V6.64ZM13.68 8.28V8.6H15.228V8.28H13.68ZM13.68 7.748V8.064H15.228V7.748H13.68ZM13.4 7.524H15.516V8.824H13.4V7.524ZM17.888 8.844H19.588V10.32H19.296V9.108H18.172V10.324H17.888V8.844ZM18.06 9.864H19.396V10.128H18.06V9.864ZM18.372 6.64L18.664 6.692C18.5973 6.83867 18.5173 6.99067 18.424 7.148C18.3307 7.30267 18.2213 7.45467 18.096 7.604C17.9707 7.75333 17.8293 7.89333 17.672 8.024C17.656 8.00533 17.636 7.984 17.612 7.96C17.5907 7.93333 17.5667 7.90933 17.54 7.888C17.5133 7.864 17.4893 7.84667 17.468 7.836C17.6173 7.71867 17.7493 7.592 17.864 7.456C17.9813 7.31733 18.0827 7.17867 18.168 7.04C18.2533 6.89867 18.3213 6.76533 18.372 6.64ZM18.3 7.032H19.4V7.292H18.168L18.3 7.032ZM19.308 7.032H19.368L19.42 7.016L19.604 7.12C19.4893 7.42133 19.336 7.69067 19.144 7.928C18.952 8.16533 18.7347 8.37067 18.492 8.544C18.252 8.71467 18.0027 8.85333 17.744 8.96C17.7333 8.936 17.7173 8.90933 17.696 8.88C17.6747 8.848 17.652 8.81867 17.628 8.792C17.604 8.76267 17.5813 8.74 17.56 8.724C17.8107 8.628 18.0507 8.50267 18.28 8.348C18.512 8.19067 18.7173 8.00667 18.896 7.796C19.0773 7.58267 19.2147 7.34533 19.308 7.084V7.032ZM18.252 7.308C18.3613 7.5 18.504 7.684 18.68 7.86C18.8587 8.036 19.0547 8.192 19.268 8.328C19.484 8.464 19.704 8.572 19.928 8.652C19.9067 8.67067 19.8827 8.69467 19.856 8.724C19.832 8.75333 19.8093 8.78267 19.788 8.812C19.7667 8.84133 19.748 8.86933 19.732 8.896C19.5027 8.80533 19.2787 8.68533 19.06 8.536C18.844 8.384 18.6453 8.212 18.464 8.02C18.2827 7.828 18.1293 7.624 18.004 7.408L18.252 7.308ZM16.78 6.64L17.044 6.748C16.9933 6.84133 16.94 6.94133 16.884 7.048C16.828 7.15467 16.7707 7.25733 16.712 7.356C16.656 7.45467 16.6013 7.54 16.548 7.612L16.344 7.52C16.3947 7.44267 16.4467 7.35333 16.5 7.252C16.5533 7.148 16.6053 7.04267 16.656 6.936C16.7067 6.82667 16.748 6.728 16.78 6.64ZM17.232 7.096L17.484 7.212C17.3933 7.364 17.292 7.52533 17.18 7.696C17.0707 7.86667 16.96 8.03067 16.848 8.188C16.736 8.34533 16.6293 8.484 16.528 8.604L16.344 8.5C16.4187 8.40933 16.496 8.30667 16.576 8.192C16.6587 8.07467 16.7387 7.95333 16.816 7.828C16.896 7.7 16.9707 7.57333 17.04 7.448C17.112 7.32 17.176 7.20267 17.232 7.096ZM16.152 7.484L16.304 7.284C16.3787 7.34533 16.4533 7.41467 16.528 7.492C16.6053 7.56667 16.676 7.64133 16.74 7.716C16.804 7.788 16.8533 7.85333 16.888 7.912L16.724 8.14C16.6893 8.07867 16.64 8.00933 16.576 7.932C16.5147 7.852 16.4467 7.77333 16.372 7.696C16.2973 7.61867 16.224 7.548 16.152 7.484ZM17.088 8.028L17.3 7.94C17.3533 8.02533 17.4053 8.11733 17.456 8.216C17.5067 8.31467 17.5507 8.41067 17.588 8.504C17.628 8.59733 17.656 8.68 17.672 8.752L17.448 8.856C17.432 8.78133 17.4053 8.69733 17.368 8.604C17.3307 8.508 17.288 8.40933 17.24 8.308C17.192 8.20667 17.1413 8.11333 17.088 8.028ZM16.136 8.432C16.312 8.42667 16.5187 8.41867 16.756 8.408C16.9933 8.39733 17.2387 8.38667 17.492 8.376L17.488 8.62C17.2507 8.636 17.016 8.652 16.784 8.668C16.552 8.68133 16.3453 8.69467 16.164 8.708L16.136 8.432ZM17.192 8.968L17.412 8.9C17.4653 9.012 17.516 9.13733 17.564 9.276C17.6147 9.412 17.6493 9.52933 17.668 9.628L17.44 9.708C17.4213 9.60667 17.388 9.488 17.34 9.352C17.2947 9.21333 17.2453 9.08533 17.192 8.968ZM16.364 8.928L16.62 8.972C16.5933 9.16133 16.556 9.348 16.508 9.532C16.46 9.71333 16.404 9.868 16.34 9.996C16.3213 9.98267 16.2973 9.96933 16.268 9.956C16.2413 9.94267 16.212 9.92933 16.18 9.916C16.1507 9.9 16.124 9.888 16.1 9.88C16.1693 9.75733 16.224 9.612 16.264 9.444C16.3067 9.27333 16.34 9.10133 16.364 8.928ZM16.792 8.544H17.06V10.328H16.792V8.544ZM20.788 6.644H21.048V10.32H20.788V6.644ZM20.264 7.4H21.48V7.672H20.496V9.496H20.264V7.4ZM21.36 7.4H21.588V9.168C21.588 9.22133 21.5827 9.268 21.572 9.308C21.5613 9.348 21.5387 9.38133 21.504 9.408C21.4693 9.42933 21.428 9.444 21.38 9.452C21.332 9.45733 21.2733 9.46 21.204 9.46C21.2013 9.42267 21.192 9.38 21.176 9.332C21.16 9.28133 21.1413 9.23733 21.12 9.2C21.1707 9.20267 21.2133 9.204 21.248 9.204C21.2827 9.204 21.308 9.204 21.324 9.204C21.348 9.20133 21.36 9.18667 21.36 9.16V7.4ZM22.064 6.812H23.648V7.064H22.064V6.812ZM22.068 7.372H23.516V7.608H22.068V7.372ZM22.068 7.924H23.516V8.156H22.068V7.924ZM21.64 8.468H23.82V8.728H21.64V8.468ZM21.556 10C21.732 9.97333 21.9453 9.94 22.196 9.9C22.4493 9.86 22.7067 9.81867 22.968 9.776L22.988 10.028C22.7427 10.0733 22.5 10.116 22.26 10.156C22.02 10.1987 21.8067 10.2373 21.62 10.272L21.556 10ZM22.796 8.548C22.8467 8.79067 22.9187 9.012 23.012 9.212C23.1053 9.412 23.2253 9.58533 23.372 9.732C23.5187 9.876 23.6947 9.98667 23.9 10.064C23.8787 10.0827 23.8547 10.1067 23.828 10.136C23.804 10.168 23.78 10.2 23.756 10.232C23.7347 10.264 23.716 10.2933 23.7 10.32C23.484 10.224 23.3 10.0947 23.148 9.932C22.996 9.76667 22.872 9.57067 22.776 9.344C22.68 9.11733 22.604 8.86667 22.548 8.592L22.796 8.548ZM23.612 8.82L23.812 9C23.7053 9.09867 23.584 9.19733 23.448 9.296C23.3147 9.392 23.192 9.47467 23.08 9.544L22.908 9.368C22.9827 9.32267 23.0627 9.26933 23.148 9.208C23.2333 9.144 23.3173 9.07867 23.4 9.012C23.4827 8.94267 23.5533 8.87867 23.612 8.82ZM21.944 6.812H22.224V8.596H21.944V6.812ZM21.94 8.588H22.22V10.016L21.94 10.056V8.588Z" fill="white"/>
<path d="M30 14H12" stroke="white" stroke-linecap="round"/>
<path d="M30 18H12" stroke="white" stroke-linecap="round"/>
<path d="M30 22H12" stroke="white" stroke-linecap="round"/>
<path d="M30 26H12" stroke="white" stroke-linecap="round"/>
<path d="M30 30H12" stroke="white" stroke-linecap="round"/>
<rect width="2" height="32" transform="matrix(-1 0 0 1 9 4)" fill="#3B1EDE"/>
</svg>
